<svg xmlns="http://www.w3.org/2000/svg" xmlns:xlink="http://www.w3.org/1999/xlink" version="1.1" id="Layer_1" x="0px" y="0px" viewBox="0 0 500 500" style="enable-background:new 0 0 500 500;" xml:space="preserve">
<style type="text/css">
	.st0{fill:#cccccf;}
</style>
<g>
	<path class="st0" d="M62.22,77.57h15.3v28.52h0.42l13.53-28.52h15.62l-16.86,34.77l17.18,38.1H91.47l-13.53-31.02h-0.42v31.02   h-15.3V77.57z" fill="#000000"/>
	<path class="st0" d="M146.32,150.43h-13.01l-0.52-4.37h-0.31c-1.56,2.5-4.16,5-9.27,5c-8.74,0-13.43-5.73-13.43-15.72   c0-12.28,6.77-16.76,17.91-16.76h4.68v-4.48c0-5.62-1.77-7.49-7.91-7.49c-3.64,0-8.33,0.62-11.14,1.46V96.93   c3.54-1.14,9.37-2.08,15.62-2.08c12.91,0,17.38,5.72,17.38,17.9V150.43z M132.37,127.64h-3.64c-3.23,0-5.21,1.35-5.21,6.45   c0,4.37,1.04,6.25,4.37,6.25c2.91,0,4.48-2.5,4.48-5.93V127.64z" fill="#000000"/>
	<path class="st0" d="M179.83,109.84c-0.94-0.1-1.98-0.21-2.81-0.21c-7.29,0-8.85,3.33-8.85,8.95v31.85h-14.26V95.68h13.43   l0.62,6.25h0.31c1.46-3.85,3.75-6.66,8.74-6.66c1.25,0,1.98,0.21,2.81,0.42V109.84z" fill="#000000"/>
	<path class="st0" d="M199.08,150.43h-14.26V74.76h14.26V150.43z" fill="#000000"/>
	<path class="st0" d="M205.63,123.68v-1.25c0-19.57,6.77-27.59,20.61-27.59c13.84,0,20.61,8.02,20.61,27.59v1.25   c0,19.57-6.77,27.59-20.61,27.59C212.4,151.27,205.63,143.25,205.63,123.68z M230.3,137.74c1.56-2.19,1.98-6.77,1.98-13.74v-1.87   c0-6.98-0.42-11.56-1.98-13.74c-0.94-1.25-2.08-1.87-4.06-1.87c-1.98,0-3.02,0.62-4.06,1.87c-1.46,2.18-1.98,6.77-1.98,13.74v1.87   c0,6.97,0.52,11.55,1.98,13.74c1.04,1.25,2.08,1.87,4.06,1.87C228.22,139.61,229.36,138.98,230.3,137.74z" fill="#000000"/>
	<path class="st0" d="M261.2,150.43l-12.18-54.76h14.78l4.37,29.88c0.52,3.33,0.94,7.6,1.14,11.03h0.42   c0.1-3.44,0.52-7.7,1.04-11.03l4.68-29.88h14.16l-12.39,54.76H261.2z" fill="#000000"/>
	<path class="st0" d="M327.3,150.43h-13.01l-0.52-4.37h-0.31c-1.56,2.5-4.16,5-9.27,5c-8.74,0-13.43-5.73-13.43-15.72   c0-12.28,6.77-16.76,17.91-16.76h4.68v-4.48c0-5.62-1.77-7.49-7.91-7.49c-3.64,0-8.33,0.62-11.14,1.46V96.93   c3.54-1.14,9.37-2.08,15.62-2.08c12.91,0,17.38,5.72,17.38,17.9V150.43z M313.35,127.64h-3.64c-3.23,0-5.21,1.35-5.21,6.45   c0,4.37,1.04,6.25,4.37,6.25c2.91,0,4.48-2.5,4.48-5.93V127.64z" fill="#000000"/>
	<path class="st0" d="M348.42,123.99c0,6.25,0.42,10.83,2.5,13.22c1.46,1.46,3.85,1.87,6.66,1.87c2.81,0,4.79-0.42,7.08-1.14v11.35   c-2.08,1.04-5.83,1.98-10.72,1.98c-6.56,0-11.14-1.25-14.36-4.89c-4.06-4.27-5.93-11.76-5.93-22.69v-1.25   c0-11.03,1.77-18.53,5.93-22.8c3.23-3.54,7.81-4.79,14.16-4.79c4.68,0,8.43,0.94,10.51,1.98v11.35c-2.29-0.73-4.27-1.14-6.87-1.14   c-2.6,0-5,0.42-6.45,1.87c-2.08,2.39-2.5,7.08-2.5,13.22V123.99z" fill="#000000"/>
	<path class="st0" d="M401.29,155.22c0,9.47-2.81,14.68-12.8,14.68c-2.71,0-6.14-0.42-8.02-1.04v-11.35   c0.73,0.1,1.77,0.21,2.91,0.21c3.12,0,3.75-1.35,3.75-4.89V95.68h14.16V155.22z M401.39,89.75h-14.37v-12.7h14.37V89.75z" fill="#000000"/>
	<path class="st0" d="M444.79,137.84v10.51c-3.44,1.56-8.85,2.91-14.16,2.91c-15.2,0-22.69-7.5-22.69-27.9v-1.25   c0-19.26,6.56-27.27,19.47-27.27c14.16,0,18.53,8.95,18.53,25.19v7.81H422.1c0.1,4.06,0.83,7.6,2.81,9.79   c1.46,1.77,3.96,2.39,8.33,2.39C437.19,140.02,441.67,139.09,444.79,137.84z M422.1,118.58h10.51v-1.46c0-4.79-0.1-8.33-1.46-10.1   c-0.73-1.04-1.87-1.46-3.54-1.46c-1.56,0-2.71,0.42-3.54,1.35C422.52,108.9,422.1,112.65,422.1,118.58z" fill="#000000"/>
	<path class="st0" d="M123.74,254.51h-14.16v-36.75c0-4.06-1.04-6.35-4.68-6.35c-3.96,0-5.21,2.91-5.21,7.18v35.91H85.54v-36.75   c0-4.06-1.04-6.35-4.58-6.35c-3.96,0-5.2,2.91-5.2,7.29v35.81H61.49v-54.76h13.43l0.42,4.69h0.31c2.29-3.23,6.14-5.52,11.55-5.52   c5.62,0,9.06,2.39,10.83,6.35h0.31c2.29-3.33,5.93-6.35,12.39-6.35c9.68,0,13.01,6.45,13.01,15.82V254.51z" fill="#000000"/>
	<path class="st0" d="M130.07,227.76v-1.25c0-19.57,6.77-27.59,20.61-27.59c13.84,0,20.61,8.02,20.61,27.59v1.25   c0,19.57-6.77,27.59-20.61,27.59C136.84,255.34,130.07,247.33,130.07,227.76z M154.74,241.81c1.56-2.19,1.98-6.77,1.98-13.74v-1.87   c0-6.98-0.42-11.56-1.98-13.74c-0.94-1.25-2.08-1.87-4.06-1.87s-3.02,0.62-4.06,1.87c-1.46,2.18-1.98,6.77-1.98,13.74v1.87   c0,6.97,0.52,11.55,1.98,13.74c1.04,1.25,2.08,1.87,4.06,1.87S153.81,243.06,154.74,241.81z" fill="#000000"/>
	<path class="st0" d="M191.89,259.3c0,9.47-2.81,14.68-12.8,14.68c-2.71,0-6.14-0.42-8.02-1.04v-11.35c0.73,0.1,1.77,0.21,2.91,0.21   c3.12,0,3.75-1.35,3.75-4.89v-57.15h14.16V259.3z M192,193.82h-14.37v-12.7H192V193.82z" fill="#000000"/>
	<path class="st0" d="M228.11,228.07c0,6.25,0.42,10.83,2.5,13.22c1.46,1.46,3.85,1.87,6.66,1.87c2.81,0,4.79-0.42,7.08-1.14v11.35   c-2.08,1.04-5.83,1.98-10.72,1.98c-6.56,0-11.14-1.25-14.36-4.89c-4.06-4.27-5.93-11.76-5.93-22.69v-1.25   c0-11.03,1.77-18.53,5.93-22.8c3.23-3.54,7.81-4.79,14.16-4.79c4.68,0,8.43,0.94,10.51,1.98v11.35c-2.29-0.73-4.27-1.14-6.87-1.14   c-2.6,0-5,0.42-6.45,1.87c-2.08,2.39-2.5,7.08-2.5,13.22V228.07z" fill="#000000"/>
	<path class="st0" d="M285.57,241.91v10.51c-3.44,1.56-8.85,2.91-14.16,2.91c-15.2,0-22.69-7.5-22.69-27.9v-1.25   c0-19.26,6.56-27.27,19.47-27.27c14.16,0,18.53,8.95,18.53,25.19v7.81h-23.84c0.1,4.06,0.83,7.6,2.81,9.79   c1.46,1.77,3.96,2.39,8.33,2.39C277.97,244.1,282.44,243.16,285.57,241.91z M262.87,222.66h10.51v-1.46c0-4.79-0.1-8.33-1.46-10.1   c-0.73-1.04-1.87-1.46-3.54-1.46c-1.56,0-2.71,0.42-3.54,1.35C263.29,212.97,262.87,216.72,262.87,222.66z" fill="#000000"/>
	<path class="st0" d="M331.98,254.51h-14.16v-36.75c0-4.06-0.94-6.35-4.68-6.35c-4.16,0-5.31,2.91-5.31,7.29v35.81h-14.26v-54.76   H307l0.42,4.69h0.31c2.29-3.12,6.04-5.52,11.66-5.52c9.37,0,12.59,6.45,12.59,15.82V254.51z" fill="#000000"/>
	<path class="st0" d="M355.39,211.62v26.34c0,4.16,0.94,5.1,4.48,5.1c1.56,0,3.02-0.1,3.95-0.31v10.83   c-1.98,0.94-5.52,1.56-8.64,1.56c-10.62,0-13.85-4.16-13.85-15.3v-28.21h-5.2v-11.87h5.31v-13.32h13.84v13.32h8.43v11.87H355.39z" fill="#000000"/>
	<path class="st0" d="M403.69,254.51h-13.01l-0.52-4.37h-0.31c-1.56,2.5-4.16,5-9.27,5c-8.74,0-13.43-5.73-13.43-15.72   c0-12.28,6.77-16.76,17.91-16.76h4.68v-4.48c0-5.62-1.77-7.49-7.91-7.49c-3.64,0-8.33,0.62-11.14,1.46V201   c3.54-1.14,9.37-2.08,15.62-2.08c12.91,0,17.38,5.72,17.38,17.9V254.51z M389.74,231.71h-3.64c-3.23,0-5.21,1.35-5.21,6.45   c0,4.37,1.04,6.25,4.37,6.25c2.91,0,4.48-2.5,4.48-5.93V231.71z" fill="#000000"/>
	<path class="st0" d="M437.2,213.91c-0.94-0.1-1.98-0.21-2.81-0.21c-7.29,0-8.85,3.33-8.85,8.95v31.85h-14.26v-54.76h13.43   l0.62,6.25h0.31c1.46-3.85,3.75-6.66,8.74-6.66c1.25,0,1.98,0.21,2.81,0.42V213.91z" fill="#000000"/>
	<path class="st0" d="M73.36,359.42c-5,0-9.58-0.73-12.6-1.87v-10.72c2.6,0.62,6.35,1.25,10.2,1.25c4.89,0,6.35-1.25,6.35-4.89   c0-3.12-0.83-4.58-4.58-6.45l-3.54-1.87c-5.41-2.91-9.37-6.97-9.37-15.93c0-11.35,5-15.93,16.97-15.93c5.31,0,8.85,0.73,10.93,1.56   v10.72c-1.98-0.62-4.89-1.04-8.12-1.04c-5.1,0-6.87,0.73-6.87,4.16c0,2.81,1.67,4.37,5.31,6.35l3.54,1.98   c6.35,3.54,8.64,6.87,8.64,15.61C90.22,355.04,85.02,359.42,73.36,359.42z" fill="#000000"/>
	<path class="st0" d="M103.95,358.58l-12.18-54.76h14.78l4.37,29.88c0.52,3.33,0.94,7.6,1.14,11.03h0.42   c0.1-3.44,0.52-7.7,1.04-11.03l4.68-29.88h14.16l-12.39,54.76H103.95z" fill="#000000"/>
	<path class="st0" d="M151.52,297.89h-14.47v-12.7h14.47V297.89z M151.41,358.58h-14.26v-54.76h14.26V358.58z" fill="#000000"/>
	<path class="st0" d="M174,363.37c0,9.47-2.81,14.68-12.8,14.68c-2.71,0-6.14-0.42-8.02-1.04v-11.35c0.73,0.1,1.77,0.21,2.91,0.21   c3.12,0,3.75-1.35,3.75-4.89v-57.15H174V363.37z M174.1,297.89h-14.37v-12.7h14.37V297.89z" fill="#000000"/>
	<path class="st0" d="M217.5,345.99v10.51c-3.44,1.56-8.85,2.91-14.16,2.91c-15.2,0-22.69-7.5-22.69-27.9v-1.25   c0-19.26,6.56-27.27,19.47-27.27c14.16,0,18.53,8.95,18.53,25.19v7.81h-23.84c0.1,4.06,0.83,7.6,2.81,9.79   c1.46,1.77,3.96,2.39,8.33,2.39C209.9,348.17,214.38,347.24,217.5,345.99z M194.81,326.73h10.51v-1.46c0-4.79-0.1-8.33-1.46-10.1   c-0.73-1.04-1.87-1.46-3.54-1.46c-1.56,0-2.71,0.42-3.54,1.35C195.22,317.05,194.81,320.8,194.81,326.73z" fill="#000000"/>
	<path class="st0" d="M241.75,315.69v26.34c0,4.16,0.94,5.1,4.48,5.1c1.56,0,3.02-0.1,3.95-0.31v10.83   c-1.98,0.94-5.52,1.56-8.64,1.56c-10.62,0-13.85-4.16-13.85-15.3v-28.21h-5.2v-11.87h5.31V290.5h13.84v13.32h8.43v11.87H241.75z" fill="#000000"/>
	<path class="st0" d="M290.04,358.58h-13.01l-0.52-4.37h-0.31c-1.56,2.5-4.16,5-9.27,5c-8.74,0-13.43-5.73-13.43-15.72   c0-12.28,6.77-16.76,17.91-16.76h4.68v-4.48c0-5.62-1.77-7.49-7.91-7.49c-3.64,0-8.33,0.62-11.14,1.46v-11.14   c3.54-1.14,9.37-2.08,15.62-2.08c12.91,0,17.38,5.72,17.38,17.9V358.58z M276.09,335.78h-3.64c-3.23,0-5.21,1.35-5.21,6.45   c0,4.37,1.04,6.25,4.37,6.25c2.91,0,4.48-2.5,4.48-5.93V335.78z" fill="#000000"/>
	<path class="st0" d="M312.93,358.58h-15.2v-15.51h15.2V358.58z" fill="#000000"/>
</g>
<polygon class="st0" points="104.16,454.59 69.31,409.91 27.51,409.91 27.51,41.7 472.6,55.13 40.94,55.13 40.94,396.48   74.61,396.48 104.16,454.59 98.12,396.44 350.13,396.47 111.5,409.88 " fill="#000000"/>
<g>
	<path class="st0" d="M131.35,429.85h13.13c5.58,0,8.47,2.06,8.47,5.82c0,3.23-1.39,6.39-4.73,7.4v0.16   c2.12,0.48,3.66,1.98,3.66,4.97c0,7.07-4.7,9.94-11.43,9.94h-13.82L131.35,429.85z M140.43,452.68c2.89,0,4.39-1.05,4.39-4.32   c0-1.74-0.96-2.18-3.35-2.18h-5.97l-1.12,6.51H140.43z M141.89,441.04c2.46,0,4.04-0.89,4.04-3.84c0-1.49-0.81-1.9-2.96-1.9h-5.62   l-1,5.74H141.89z" fill="#000000"/>
	<path class="st0" d="M160.98,458.14h-6.62l3.58-21.46h6.62L160.98,458.14z M165.02,434.29h-6.77l0.92-5.58h6.77L165.02,434.29z" fill="#000000"/>
	<path class="st0" d="M182.42,442.9c-0.65-0.08-1.5-0.12-2.12-0.12c-4.16,0-5.62,1.46-6.16,4.81l-1.77,10.55h-6.62l3.62-21.46h5.85   l-0.04,3.4h0.15c1.35-2.06,2.89-3.6,6.24-3.56c0.62,0,1.5,0.08,1.89,0.24L182.42,442.9z" fill="#000000"/>
	<path class="st0" d="M201.13,458.14h-5.81v-2.47h-0.15c-1.08,1.33-2.5,2.79-6.2,2.79c-3.46,0-5.93-1.66-5.93-4.89   c0-5.62,3.35-7.68,8.81-7.68h4.81l0.19-1.13c0.38-2.22-0.27-3.03-3.58-3.03c-2.31,0-4.66,0.32-6.16,0.69l-0.15-4.85   c1.96-0.65,5.16-1.29,8.66-1.29c6.97,0,8.62,2.95,7.74,8.29L201.13,458.14z M196.01,449.86h-3.81c-1.66,0-2.69,0.57-2.69,2.42   c0,1.05,0.62,1.54,2.12,1.54c2.19,0,3.89-1.13,4.23-3.15L196.01,449.86z" fill="#000000"/>
	<path class="st0" d="M214.56,449.53c0,2.67,1.35,3.52,4.66,3.52c1.62,0,3.5-0.24,4.7-0.57l0.15,4.89   c-1.35,0.57-4.04,1.17-6.93,1.17c-5.81,0-9.43-2.38-9.43-8.04c0-0.93,0.12-2.02,0.31-3.19c1.27-7.56,5-11.03,12.24-11.03   c2.89,0,5.97,0.65,7.08,1.13l-1.85,4.89c-1.04-0.28-2.81-0.53-4.39-0.53c-3.85,0-5.62,1.09-6.35,5.66   C214.63,448.24,214.56,448.97,214.56,449.53z M223.07,434.21h-5.27l-3.85-6.67h4.85l2.31,2.87l3.23-2.87h4.85L223.07,434.21z" fill="#000000"/>
	<path class="st0" d="M234.53,453.37l11.51-11.48h-9.32l0.89-5.21h17.09l-0.81,4.77l-11.55,11.52h9.85l-0.85,5.17h-17.63   L234.53,453.37z" fill="#000000"/>
	<path class="st0" d="M273.29,458.14h-5.81v-2.47h-0.15c-1.08,1.33-2.5,2.79-6.2,2.79c-3.46,0-5.93-1.66-5.93-4.89   c0-5.62,3.35-7.68,8.81-7.68h4.81l0.19-1.13c0.38-2.22-0.27-3.03-3.58-3.03c-2.31,0-4.66,0.32-6.16,0.69l-0.15-4.85   c1.96-0.65,5.16-1.29,8.66-1.29c6.97,0,8.62,2.95,7.74,8.29L273.29,458.14z M268.17,449.86h-3.81c-1.66,0-2.69,0.57-2.69,2.42   c0,1.05,0.62,1.54,2.12,1.54c2.19,0,3.89-1.13,4.23-3.15L268.17,449.86z" fill="#000000"/>
	<path class="st0" d="M302.93,443.55l8.39,14.59h-7.93l-6.54-11.48h-1.5l-1.92,11.48h-7.12l4.73-28.29h7.12l-1.81,10.71h1.35   l10.12-10.71h8.12L302.93,443.55z" fill="#000000"/>
	<path class="st0" d="M332.1,458.14h-5.81v-2.47h-0.15c-1.08,1.33-2.5,2.79-6.2,2.79c-3.46,0-5.93-1.66-5.93-4.89   c0-5.62,3.35-7.68,8.81-7.68h4.81l0.19-1.13c0.38-2.22-0.27-3.03-3.58-3.03c-2.31,0-4.66,0.32-6.16,0.69l-0.15-4.85   c1.96-0.65,5.16-1.29,8.66-1.29c6.97,0,8.62,2.95,7.74,8.29L332.1,458.14z M326.98,449.86h-3.81c-1.66,0-2.69,0.57-2.69,2.42   c0,1.05,0.62,1.54,2.12,1.54c2.19,0,3.89-1.13,4.23-3.15L326.98,449.86z" fill="#000000"/>
	<path class="st0" d="M353.27,442.9c-0.65-0.08-1.5-0.12-2.12-0.12c-4.16,0-5.62,1.46-6.16,4.81l-1.77,10.55h-6.62l3.62-21.46h5.85   l-0.04,3.4h0.15c1.35-2.06,2.89-3.6,6.24-3.56c0.62,0,1.5,0.08,1.89,0.24L353.27,442.9z" fill="#000000"/>
	<path class="st0" d="M361.85,451.15c-0.27,1.66,0.04,2.02,1.5,2.02c0.54,0,1-0.04,1.39-0.12l-0.81,4.81   c-0.85,0.28-1.89,0.53-3.19,0.53c-4.5,0-6.47-1.58-5.62-6.59l3.93-23.2h6.62L361.85,451.15z" fill="#000000"/>
	<path class="st0" d="M389.95,444.44c0,0.97-0.08,1.98-0.27,3.07c-1.27,7.36-5.04,11.03-12.36,11.03c-6.2,0-9.43-2.83-9.43-8.12   c0-0.93,0.12-1.98,0.31-3.11c1.23-7.36,4.97-11.03,12.32-11.03C386.72,436.28,389.95,439.1,389.95,444.44z M382.94,447.43   c0.15-1.05,0.27-1.98,0.27-2.75c0-2.1-0.81-3.27-3.31-3.27c-3.43,0-4.35,2.22-4.97,6.02c-0.19,1.01-0.31,1.94-0.31,2.75   c0,2.06,0.81,3.23,3.31,3.23C381.36,453.41,382.29,451.19,382.94,447.43z" fill="#000000"/>
	<path class="st0" d="M404.3,458.14h-7.04l-3.89-21.46h6.85l1.19,8.2c0.23,2.22,0.38,4.93,0.35,6.95h0.15   c0.65-2.02,1.62-4.73,2.66-6.99l4.12-8.16h6.74L404.3,458.14z" fill="#000000"/>
	<path class="st0" d="M432.59,458.14h-5.81v-2.47h-0.15c-1.08,1.33-2.5,2.79-6.2,2.79c-3.46,0-5.93-1.66-5.93-4.89   c0-5.62,3.35-7.68,8.81-7.68h4.81l0.19-1.13c0.38-2.22-0.27-3.03-3.58-3.03c-2.31,0-4.66,0.32-6.16,0.69l-0.15-4.85   c1.96-0.65,5.16-1.29,8.66-1.29c6.97,0,8.62,2.95,7.74,8.29L432.59,458.14z M427.47,449.86h-3.81c-1.66,0-2.69,0.57-2.69,2.42   c0,1.05,0.62,1.54,2.12,1.54c2.19,0,3.89-1.13,4.23-3.15L427.47,449.86z" fill="#000000"/>
	<path class="st0" d="M444.6,449.53c0,2.67,1.35,3.52,4.66,3.52c1.62,0,3.5-0.24,4.7-0.57l0.15,4.89c-1.35,0.57-4.04,1.17-6.93,1.17   c-5.81,0-9.43-2.38-9.43-8.04c0-0.93,0.12-2.02,0.31-3.19c1.27-7.56,5-11.03,12.24-11.03c2.89,0,5.97,0.65,7.08,1.13l-1.85,4.89   c-1.04-0.28-2.81-0.53-4.39-0.53c-3.85,0-5.62,1.09-6.35,5.66C444.68,448.24,444.6,448.97,444.6,449.53z" fill="#000000"/>
</g>
</svg>